<?xml version="1.0" standalone="no"?>
<svg xmlns:xlink="http://www.w3.org/1999/xlink" id="wave" style="transform:rotate(180deg); transition: 0.3s" viewBox="0 0 1440 490" version="1.1" xmlns="http://www.w3.org/2000/svg"><defs><linearGradient id="sw-gradient-0" x1="0" x2="0" y1="1" y2="0"><stop stop-color="rgba(44, 117, 101, 1)" offset="0%"/><stop stop-color="rgba(32, 65, 57, 1)" offset="100%"/></linearGradient></defs><path style="transform:translate(0, 0px); opacity:1" fill="rgba(44, 117, 101, 1)" d="M0,441L80,416.5C160,392,320,343,480,277.7C640,212,800,131,960,147C1120,163,1280,278,1440,318.5C1600,359,1760,327,1920,334.8C2080,343,2240,392,2400,400.2C2560,408,2720,376,2880,375.7C3040,376,3200,408,3360,416.5C3520,425,3680,408,3840,383.8C4000,359,4160,327,4320,318.5C4480,310,4640,327,4800,318.5C4960,310,5120,278,5280,285.8C5440,294,5600,343,5760,351.2C5920,359,6080,327,6240,285.8C6400,245,6560,196,6720,179.7C6880,163,7040,180,7200,163.3C7360,147,7520,98,7680,114.3C7840,131,8000,212,8160,236.8C8320,261,8480,229,8640,212.3C8800,196,8960,196,9120,220.5C9280,245,9440,294,9600,302.2C9760,310,9920,278,10080,277.7C10240,278,10400,310,10560,334.8C10720,359,10880,376,11040,375.7C11200,376,11360,359,11440,351.2L11520,343L11520,490L11440,490C11360,490,11200,490,11040,490C10880,490,10720,490,10560,490C10400,490,10240,490,10080,490C9920,490,9760,490,9600,490C9440,490,9280,490,9120,490C8960,490,8800,490,8640,490C8480,490,8320,490,8160,490C8000,490,7840,490,7680,490C7520,490,7360,490,7200,490C7040,490,6880,490,6720,490C6560,490,6400,490,6240,490C6080,490,5920,490,5760,490C5600,490,5440,490,5280,490C5120,490,4960,490,4800,490C4640,490,4480,490,4320,490C4160,490,4000,490,3840,490C3680,490,3520,490,3360,490C3200,490,3040,490,2880,490C2720,490,2560,490,2400,490C2240,490,2080,490,1920,490C1760,490,1600,490,1440,490C1280,490,1120,490,960,490C800,490,640,490,480,490C320,490,160,490,80,490L0,490Z"/><defs><linearGradient id="sw-gradient-1" x1="0" x2="0" y1="1" y2="0"><stop stop-color="rgba(243, 106, 62, 1)" offset="0%"/><stop stop-color="rgba(255, 179, 11, 1)" offset="100%"/></linearGradient></defs><path style="transform:translate(0, 50px); opacity:0.9" fill="rgba(32, 65, 57, 1)" d="M0,147L80,179.7C160,212,320,278,480,318.5C640,359,800,376,960,367.5C1120,359,1280,327,1440,334.8C1600,343,1760,392,1920,359.3C2080,327,2240,212,2400,187.8C2560,163,2720,229,2880,261.3C3040,294,3200,294,3360,245C3520,196,3680,98,3840,122.5C4000,147,4160,294,4320,367.5C4480,441,4640,441,4800,392C4960,343,5120,245,5280,236.8C5440,229,5600,310,5760,302.2C5920,294,6080,196,6240,171.5C6400,147,6560,196,6720,228.7C6880,261,7040,278,7200,245C7360,212,7520,131,7680,89.8C7840,49,8000,49,8160,73.5C8320,98,8480,147,8640,171.5C8800,196,8960,196,9120,179.7C9280,163,9440,131,9600,147C9760,163,9920,229,10080,253.2C10240,278,10400,261,10560,253.2C10720,245,10880,245,11040,236.8C11200,229,11360,212,11440,204.2L11520,196L11520,490L11440,490C11360,490,11200,490,11040,490C10880,490,10720,490,10560,490C10400,490,10240,490,10080,490C9920,490,9760,490,9600,490C9440,490,9280,490,9120,490C8960,490,8800,490,8640,490C8480,490,8320,490,8160,490C8000,490,7840,490,7680,490C7520,490,7360,490,7200,490C7040,490,6880,490,6720,490C6560,490,6400,490,6240,490C6080,490,5920,490,5760,490C5600,490,5440,490,5280,490C5120,490,4960,490,4800,490C4640,490,4480,490,4320,490C4160,490,4000,490,3840,490C3680,490,3520,490,3360,490C3200,490,3040,490,2880,490C2720,490,2560,490,2400,490C2240,490,2080,490,1920,490C1760,490,1600,490,1440,490C1280,490,1120,490,960,490C800,490,640,490,480,490C320,490,160,490,80,490L0,490Z"/><defs><linearGradient id="sw-gradient-2" x1="0" x2="0" y1="1" y2="0"><stop stop-color="rgba(44, 117, 101, 1)" offset="0%"/><stop stop-color="rgba(32, 65, 57, 1)" offset="100%"/></linearGradient></defs><path style="transform:translate(0, 100px); opacity:0.8" fill="rgba(32, 65, 57, 1)" d="M0,0L80,24.5C160,49,320,98,480,114.3C640,131,800,114,960,122.5C1120,131,1280,163,1440,212.3C1600,261,1760,327,1920,334.8C2080,343,2240,294,2400,253.2C2560,212,2720,180,2880,155.2C3040,131,3200,114,3360,89.8C3520,65,3680,33,3840,24.5C4000,16,4160,33,4320,98C4480,163,4640,278,4800,334.8C4960,392,5120,392,5280,400.2C5440,408,5600,425,5760,400.2C5920,376,6080,310,6240,245C6400,180,6560,114,6720,106.2C6880,98,7040,147,7200,179.7C7360,212,7520,229,7680,212.3C7840,196,8000,147,8160,138.8C8320,131,8480,163,8640,196C8800,229,8960,261,9120,228.7C9280,196,9440,98,9600,57.2C9760,16,9920,33,10080,49C10240,65,10400,82,10560,98C10720,114,10880,131,11040,187.8C11200,245,11360,343,11440,392L11520,441L11520,490L11440,490C11360,490,11200,490,11040,490C10880,490,10720,490,10560,490C10400,490,10240,490,10080,490C9920,490,9760,490,9600,490C9440,490,9280,490,9120,490C8960,490,8800,490,8640,490C8480,490,8320,490,8160,490C8000,490,7840,490,7680,490C7520,490,7360,490,7200,490C7040,490,6880,490,6720,490C6560,490,6400,490,6240,490C6080,490,5920,490,5760,490C5600,490,5440,490,5280,490C5120,490,4960,490,4800,490C4640,490,4480,490,4320,490C4160,490,4000,490,3840,490C3680,490,3520,490,3360,490C3200,490,3040,490,2880,490C2720,490,2560,490,2400,490C2240,490,2080,490,1920,490C1760,490,1600,490,1440,490C1280,490,1120,490,960,490C800,490,640,490,480,490C320,490,160,490,80,490L0,490Z"/></svg>